# xmcd
#
# Track frame offsets: 
#        151
#        14593
#        26925
#        41538
#        54791
#        66534
#        76735
#        89140
#        101807
#        116056
#        129325
#        142074
#        153239
#        164715
#        176848
#        189000
#        201737
#
# Disc length: 2856 seconds
#
# Revision: 0
# Processed by: cddbd v1.5.2PL0 Copyright (c) Steve Scherf et al.
# Submitted via: ExactAudioCopy v0.99pb5
#
DISCID=fa0b2611
DTITLE=Blind Willie McTell - King Of The Georgia Blues - Disk 6
DYEAR=2009
DGENRE=Blues
TTITLE0=Talkin' To You Mama
TTITLE1=East St Louis
TTITLE2=Wee Midnight Hours
TTITLE3=Brown Skin Woman
TTITLE4=I Keep On Drinkin'
TTITLE5=Pal Of Mine
TTITLE6=Pal Of Mine
TTITLE7=Honey It Must Be Love
TTITLE8=Sending Up My Timber
TTITLE9=Sending Up My Timber
TTITLE10=Lord Have Mercy If You Please
TTITLE11=Trying To Get Home
TTITLE12=River Jordan
TTITLE13=How About You
TTITLE14=It's My Desire
TTITLE15=It's My Desire #2
TTITLE16=Hide Me In Thy Bosom
EXTD=
EXTT0=
EXTT1=
EXTT2=
EXTT3=
EXTT4=
EXTT5=
EXTT6=
EXTT7=
EXTT8=
EXTT9=
EXTT10=
EXTT11=
EXTT12=
EXTT13=
EXTT14=
EXTT15=
EXTT16=
PLAYORDER=
